TITLE ""
FILE "Step3_Track29.mp3" MP3
  TRACK 01 AUDIO
    TITLE "Step3_Track29_01"
    INDEX 01 00:00:00
  TRACK 02 AUDIO
    TITLE "Step3_Track29_02"
    INDEX 01 00:00:24
  TRACK 03 AUDIO
    TITLE "Step3_Track29_03"
    INDEX 01 00:01:72
  TRACK 04 AUDIO
    TITLE "Step3_Track29_04"
    INDEX 01 00:02:52
  TRACK 05 AUDIO
    TITLE "Step3_Track29_05"
    INDEX 01 00:03:46
  TRACK 06 AUDIO
    TITLE "Step3_Track29_06"
    INDEX 01 00:03:67
  TRACK 07 AUDIO
    TITLE "Step3_Track29_07"
    INDEX 01 00:06:46
  TRACK 08 AUDIO
    TITLE "Step3_Track29_08"
    INDEX 01 00:06:70
  TRACK 09 AUDIO
    TITLE "Step3_Track29_09"
    INDEX 01 00:07:69
  TRACK 10 AUDIO
    TITLE "Step3_Track29_10"
    INDEX 01 00:07:71
  TRACK 11 AUDIO
    TITLE "Step3_Track29_11"
    INDEX 01 00:11:75
  TRACK 12 AUDIO
    TITLE "Step3_Track29_12"
    INDEX 01 00:12:21
  TRACK 13 AUDIO
    TITLE "Step3_Track29_13"
    INDEX 01 00:13:27
  TRACK 14 AUDIO
    TITLE "Step3_Track29_14"
    INDEX 01 00:13:34
  TRACK 15 AUDIO
    TITLE "Step3_Track29_15"
    INDEX 01 00:17:32
  TRACK 16 AUDIO
    TITLE "Step3_Track29_16"
    INDEX 01 00:17:62
  TRACK 17 AUDIO
    TITLE "Step3_Track29_17"
    INDEX 01 00:18:59
  TRACK 18 AUDIO
    TITLE "Step3_Track29_18"
    INDEX 01 00:18:65
  TRACK 19 AUDIO
    TITLE "Step3_Track29_19"
    INDEX 01 00:22:47
  TRACK 20 AUDIO
    TITLE "Step3_Track29_20"
    INDEX 01 00:22:65
  TRACK 21 AUDIO
    TITLE "Step3_Track29_21"
    INDEX 01 00:23:60
  TRACK 22 AUDIO
    TITLE "Step3_Track29_22"
    INDEX 01 00:24:01
  TRACK 23 AUDIO
    TITLE "Step3_Track29_23"
    INDEX 01 00:26:66
  TRACK 24 AUDIO
    TITLE "Step3_Track29_24"
    INDEX 01 00:27:19
  TRACK 25 AUDIO
    TITLE "Step3_Track29_25"
    INDEX 01 00:28:20
  TRACK 26 AUDIO
    TITLE "Step3_Track29_26"
    INDEX 01 00:28:38
  TRACK 27 AUDIO
    TITLE "Step3_Track29_27"
    INDEX 01 00:32:32
  TRACK 28 AUDIO
    TITLE "Step3_Track29_28"
    INDEX 01 00:32:65
  TRACK 29 AUDIO
    TITLE "Step3_Track29_29"
    INDEX 01 00:33:65
  TRACK 30 AUDIO
    TITLE "Step3_Track29_30"
    INDEX 01 00:33:69
  TRACK 31 AUDIO
    TITLE "Step3_Track29_31"
    INDEX 01 00:37:31
  TRACK 32 AUDIO
    TITLE "Step3_Track29_32"
    INDEX 01 00:37:41
  TRACK 33 AUDIO
    TITLE "Step3_Track29_33"
    INDEX 01 00:38:30
  TRACK 34 AUDIO
    TITLE "Step3_Track29_34"
    INDEX 01 00:38:40
  TRACK 35 AUDIO
    TITLE "Step3_Track29_35"
    INDEX 01 00:42:22
  TRACK 36 AUDIO
    TITLE "Step3_Track29_36"
    INDEX 01 00:42:48
  TRACK 37 AUDIO
    TITLE "Step3_Track29_37"
    INDEX 01 00:43:49
  TRACK 38 AUDIO
    TITLE "Step3_Track29_38"
    INDEX 01 00:43:57
  TRACK 39 AUDIO
    TITLE "Step3_Track29_39"
    INDEX 01 00:47:51
  TRACK 40 AUDIO
    TITLE "Step3_Track29_40"
    INDEX 01 00:47:71
  TRACK 41 AUDIO
    TITLE "Step3_Track29_41"
    INDEX 01 00:48:66
  TRACK 42 AUDIO
    TITLE "Step3_Track29_42"
    INDEX 01 00:49:01
  TRACK 43 AUDIO
    TITLE "Step3_Track29_43"
    INDEX 01 00:53:05
